<?xml version="1.0" encoding="utf-8"?>
<!-- Generator: Adobe Illustrator 16.0.0, SVG Export Plug-In . SVG Version: 6.00 Build 0)  -->
<!DOCTYPE svg PUBLIC "-//W3C//DTD SVG 1.1//EN" "http://www.w3.org/Graphics/SVG/1.1/DTD/svg11.dtd">
<svg version="1.1" id="Capa_1" xmlns="http://www.w3.org/2000/svg" xmlns:xlink="http://www.w3.org/1999/xlink" x="0px" y="0px"
	 width="64px" height="64px" viewBox="0 0 64 64" enable-background="new 0 0 64 64" xml:space="preserve">
<g>
	<path d="M48.295,63.912V50.466l2.964-21.479c4.586-1.193,7.931-4.811,7.931-9.078c0-4.292-3.337-7.948-8.033-9.11
		C48.269,4.575,40.978,0.378,32.67,0.378c-8.309,0-15.599,4.197-18.486,10.421c-4.698,1.162-8.034,4.818-8.034,9.11
		c0,4.326,3.439,7.978,8.123,9.121l2.958,21.436v13.446H48.295z M45.148,60.766H20.375v-7.818h24.773V60.766z M9.295,19.909
		c0-3.27,3.142-5.958,7.18-6.31c1.738-5.774,8.321-10.076,16.194-10.076c7.874,0,14.455,4.301,16.194,10.076
		c4.037,0.35,7.179,3.041,7.179,6.31c0,3.291-3.184,5.997-7.261,6.317L45.351,48.78H20.173l-3.218-22.539
		C12.689,26.072,9.295,23.307,9.295,19.909z"/>
	<path d="M23.896,41.573l0.018,0.135c0.068,0.529,0.52,0.913,1.039,0.913c0.045,0,0.091-0.003,0.137-0.009
		c0.528-0.069,0.894-0.522,0.894-1.039c0-0.047,0.016-0.09,0.009-0.137l-1.3-9.937l-0.471-3.601l-0.099-0.75l-0.018-0.136
		c-0.075-0.574-0.6-0.983-1.176-0.902c-0.38,0.049-0.669,0.304-0.811,0.631c-0.056,0.128-0.083,0.262-0.083,0.408
		c0,0.046-0.016,0.089-0.009,0.136l0.427,3.258L23.896,41.573z"/>
	<path d="M40.356,42.612c0.047,0.006,0.092,0.009,0.138,0.009c0.52,0,0.97-0.384,1.037-0.913l0.02-0.135l1.451-11.088l0.419-3.198
		c0.006-0.047-0.01-0.09-0.01-0.136c0-0.166-0.037-0.318-0.109-0.458c-0.149-0.301-0.425-0.534-0.784-0.581
		c-0.58-0.08-1.102,0.328-1.176,0.902l-0.02,0.136l-0.09,0.692l-0.475,3.62l-1.306,9.975c-0.006,0.047,0.01,0.09,0.01,0.137
		C39.463,42.09,39.829,42.543,40.356,42.612z"/>
	<path d="M32.212,41.573c0.163,0.102,0.343,0.177,0.549,0.177c0.207,0,0.388-0.075,0.551-0.177c0.294-0.187,0.498-0.499,0.498-0.873
		v-7.866v-3.152V27.15v-1.965c0-0.58-0.468-1.048-1.049-1.048c-0.58,0-1.048,0.468-1.048,1.048v1.965v2.539v3.151V40.7
		C31.713,41.074,31.918,41.387,32.212,41.573z"/>
</g>
</svg>
