<?xml version="1.0" encoding="utf-8"?>
<!-- Generator: Adobe Illustrator 17.0.0, SVG Export Plug-In . SVG Version: 6.00 Build 0)  -->
<!DOCTYPE svg PUBLIC "-//W3C//DTD SVG 1.1//EN" "http://www.w3.org/Graphics/SVG/1.1/DTD/svg11.dtd">
<svg version="1.1" id="Capa_1" xmlns="http://www.w3.org/2000/svg" xmlns:xlink="http://www.w3.org/1999/xlink" x="0px" y="0px"
	 width="28.142px" height="17.444px" viewBox="0 0 28.142 17.444" enable-background="new 0 0 28.142 17.444" xml:space="preserve">
<path fill="#231F20" d="M14.02,0.664c-4.445,0-8.059,3.615-8.059,8.059c0,4.441,3.614,8.057,8.059,8.057
	c4.442,0,8.058-3.616,8.059-8.056C22.079,4.279,18.463,0.664,14.02,0.664z M14.02,16.08c-4.058,0-7.357-3.299-7.357-7.356
	c0-4.057,3.298-7.362,7.357-7.362c4.058,0,7.357,3.305,7.357,7.362C21.377,12.781,18.078,16.08,14.02,16.08z M20.861,8.724
	c0,3.775-3.064,6.839-6.84,6.839c-3.778,0-6.841-3.065-6.841-6.839c0-3.779,3.064-6.842,6.841-6.842
	C17.797,1.881,20.861,4.945,20.861,8.724z M5.299,1.529l0.002,3.975H5.295c-0.04,1.268-1.43,1.752-1.43,1.752v2.55h0.002
	l-0.002,5.867c0,0-0.562,0.725-1.29,0V7.257h0.017C1.744,6.896,1.117,6.771,1.077,5.505H1.071V1.529l0.637-0.003l0.31,3.846h0.752
	l0.095-3.925h0.613l0.074,3.925h0.882l0.203-3.843H5.299z M26.874,8.297h-1.559v7.884h-1.801V1.263h1.801
	C25.316,1.263,27.769,4.376,26.874,8.297z"/>
</svg>
